<?xml version="1.0" encoding="utf-8"?>
<!-- Generator: Adobe Illustrator 26.0.1, SVG Export Plug-In . SVG Version: 6.00 Build 0)  -->
<svg version="1.1" id="Layer_1" xmlns="http://www.w3.org/2000/svg" xmlns:xlink="http://www.w3.org/1999/xlink" x="0px" y="0px"
	 viewBox="0 0 1533 300" style="enable-background:new 0 0 1533 300;" xml:space="preserve">
<style type="text/css">
	.st0{fill:#1BB57B;}
	.st1{fill:#333232;}
	.st2{fill:#545554;}
</style>
<g>
	<polygon class="st0" points="123.4,60.4 123.4,144.9 119.1,147.4 57.4,183.4 57.4,107.6 87.4,90 73.7,81.4 43.2,99.4 43.2,250.7 
		0,226.3 0,75 74.5,32.1 	"/>
	<polygon class="st0" points="260.5,75 260.5,159 210.8,187.7 144.8,149.1 137.5,144.9 137.5,68.6 204,107.1 204,141.9 218.1,133.7 
		218.1,98.6 88.7,24 130.2,0 	"/>
	<polygon class="st0" points="260.5,175.3 260.5,226.3 130.2,300 57.4,258.9 57.4,199.7 123.4,161.6 130.7,157.3 137.5,161.6 
		196.7,195.9 130.7,234 100.2,216.9 100.2,233.6 130.7,250.7 210.8,204 210.8,204.4 211.2,204 	"/>
	<path class="st1" d="M382.7,52.3c0,8.6-6.4,15.4-15,15.4h-0.4c-4.3,0-8.1-1.3-11.1-4.3c-3-3-4.7-6.9-4.7-11.1s1.7-8.1,4.7-11.1
		c3-3,6.9-4.3,11.1-4.3c4.3,0,8.1,1.3,11.1,4.3C381,44.1,382.7,48.4,382.7,52.3z M378.4,192.4c0,6.4-3.9,9.9-11.1,9.9
		s-11.6-3.4-11.6-9.9V87.9c0-6.4,3.9-9.9,11.6-9.9s11.1,3.4,11.1,9.9C378.4,87.9,378.4,192.4,378.4,192.4z"/>
	<path class="st1" d="M477.8,192.9c0,6.4-3.9,9.9-12,9.9c-8.1,0-12-3.4-12-9.9V60.4h-35.6c-4.7,0-7.3-3.4-7.7-10.3
		c-0.4-6.9,2.6-10.3,7.7-10.3h95.1c5.1,0,7.7,3.4,7.3,10.3s-2.6,10.3-7.3,10.3h-35.6L477.8,192.9L477.8,192.9z"/>
	<path class="st1" d="M574.2,168.4c0,3.4,1.3,6.4,3,9c2.6,3,6.4,4.7,10.7,4.3h25.3c3.9,0.4,7.7-0.9,10.7-3.9c2.1-2.6,3-5.6,3-8.6
		v-2.1c0-6.4,3.9-9.4,11.1-9.4s11.1,3.4,11.1,9.4v2.6c0,4.7-0.9,9.4-2.6,14.1c-2.1,3.9-4.7,6.9-8.1,9.4c-6,4.7-13.7,7.3-21.4,7.7
		h-34.3c-7.7,0-15-3-21-7.7c-3.4-2.6-6-6.4-7.7-10.3c-1.7-4.7-2.6-9.4-2.6-14.1V111c0-11.1,3.4-19.3,10.3-24.4
		c3.4-2.6,6.9-4.3,10.3-6c3.4-1.3,6.9-2.1,10.3-2.1h34.3c3.9,0,7.3,0.9,10.7,1.7c3.9,1.3,7.7,3,11.1,5.1c3.4,2.6,6,5.6,7.7,9.4
		c2.1,4.7,3,9.4,3,14.6v27.9c0,3-0.9,6-2.6,8.1c-2.6,2.6-6.4,4.3-10.3,3.9h-43.7c-4.7,0-7.3-3.4-7.7-9.4s2.6-9.4,7.7-9.4H627v-18.9
		c0-3.4-1.3-6.4-3-9.4c-2.6-3-6.4-4.7-10.7-4.3H588c-3.9-0.4-8.1,1.3-10.7,4.3c-2.1,2.6-3,6-3,9.4V168.4z"/>
	<path class="st1" d="M756.8,129.9c3.9,0,7.3,0.9,10.7,2.6c3.9,1.7,7.3,3.4,10.7,6l0,0c3.4,2.6,6.4,6,8.1,9.9c2.1,4.7,3,9.4,3,14.6
		v6c0.9,9.4-3.4,18.9-11.1,24.4c-3.4,2.6-6.9,4.7-10.7,6c-3.4,1.3-7.3,1.7-10.7,1.7h-34.3c-3.9,0-7.3-0.4-10.7-1.7
		c-3.9-1.3-7.7-3.4-10.7-6c-7.3-5.1-11.1-13.3-11.1-24.4v-2.6c0-6,3.9-8.6,11.1-8.6s11.1,3,11.1,8.6v2.1c0,3.4,0.9,6.4,3,9
		c2.6,3,6.9,4.7,10.7,4.3h26.6c4.3,0.4,8.1-1.3,10.7-4.3c2.1-2.6,3-6,3-9v-5.6c0-1.7-0.4-3.4-0.9-5.1s-1.3-3-2.1-4.3
		c-1.3-1.3-2.6-2.6-4.3-3c-2.1-0.9-4.3-1.3-6.4-1.3H723c-7.7-0.4-15.4-3-21.9-7.3c-7.3-4.7-10.7-12.4-10.7-23.6v-6.9
		c0-4.7,0.9-9.9,3-14.1c1.7-3.9,4.7-7.3,8.1-10.3l0,0c3.4-2.1,6.9-4.3,10.7-5.6c3.4-1.3,7.3-2.1,11.1-2.1H756
		c3.9,0,7.3,0.9,10.7,2.1c3.9,1.7,7.3,3.4,10.7,5.6l0,0c3.4,2.6,6.4,6,8.1,10.3c2.1,4.7,3,9.4,3,14.1v1.7c0,2.6-0.9,4.7-3,6
		c-2.6,1.3-5.6,2.1-8.1,2.1c-7.3,0-11.1-2.6-11.1-8.1v-1.7c0-3.4-1.3-6.4-3-9.4c-2.6-3-6.4-4.7-10.7-4.3h-25.3
		c-3.9-0.4-8.1,1.3-10.7,4.3c-2.1,2.6-3,6-3,9.4v4.7c0,3.4,0.9,6.9,3,9.4c2.6,3,6.4,4.7,10.7,4.3H756.8z"/>
	<path class="st1" d="M897,129.9c3.9,0,7.3,0.9,10.7,2.6c3.9,1.7,7.3,3.4,10.7,6l0,0c3.4,2.6,6.4,6,8.1,9.9c2.1,4.7,3,9.4,3,14.6v6
		c0.9,9.4-3.4,18.9-11.1,24.4c-3.4,2.6-6.9,4.7-10.7,6c-3.4,1.3-7.3,1.7-10.7,1.7h-34.7c-3.9,0-7.3-0.4-10.7-1.7
		c-3.9-1.3-7.7-3.4-10.7-6c-7.3-5.1-10.7-13.3-10.7-24.4v-2.6c0-6,3.9-8.6,11.1-8.6s11.1,3,11.1,8.6v2.1c0,3.4,1.3,6.4,3,9
		c2.6,3,6.9,4.7,10.7,4.3h27c4.3,0.4,8.1-1.3,10.7-4.3c2.1-2.6,3-6,3-9v-5.6c0-1.7-0.4-3.4-0.9-5.1c-0.4-1.7-1.3-3-2.1-4.3
		c-1.3-1.3-2.6-2.6-4.3-3c-2.1-0.9-4.3-1.3-6.4-1.3h-29.6c-7.7-0.4-15.4-3-21.9-7.3c-7.3-4.7-10.7-12.4-10.7-23.6v-6.9
		c0-4.7,0.9-9.9,3-14.1c1.7-3.9,4.7-7.3,8.1-10.3l0,0c3.4-2.1,6.9-4.3,10.7-5.6c3.4-1.3,7.3-2.1,11.1-2.1h32.6
		c3.9,0,7.3,0.9,10.7,2.1c3.9,1.7,7.3,3.4,10.7,5.6l0,0c3.4,2.6,6.4,6,8.1,10.3c2.1,4.7,3,9.4,3,14.1v1.7c0,2.6-0.9,4.7-3,6
		c-2.6,1.3-5.6,2.1-8.1,2.1c-7.3,0-11.1-2.6-11.1-8.1v-1.7c0-3.4-1.3-6.4-3-9.4c-2.6-3-6.4-4.7-10.7-4.3h-25.3
		c-3.9-0.4-8.1,1.3-10.7,4.3c-2.1,2.6-3,6-3,9.4v4.7c0,3.4,1.3,6.9,3,9.4c2.6,3,6.4,4.7,10.7,4.3H897z"/>
	<path class="st1" d="M993.4,168.4c0,3.4,1.3,6.4,3,9c2.6,3,6.4,4.7,10.7,4.3h25.3c3.9,0.4,7.7-0.9,10.7-3.9c2.1-2.6,3-5.6,3-8.6
		v-2.1c0-6.4,3.9-9.4,11.1-9.4s11.1,3.4,11.1,9.4v2.6c0,4.7-0.9,9.4-2.6,14.1c-1.7,3.9-4.7,6.9-8.1,9.4c-6,4.7-13.7,7.3-21.4,7.7
		H1002c-7.7,0-15-3-21-7.7c-3.4-2.6-6-6.4-7.7-10.3c-1.7-4.7-2.6-9.4-2.6-14.1V111c0-11.1,3.4-19.3,10.3-24.4
		c3.4-2.6,6.9-4.3,10.3-6c3.4-1.3,6.9-2.1,10.3-2.1h34.3c3.9,0,7.3,0.9,10.7,1.7c3.9,1.3,7.7,3,11.1,5.1c3.4,2.6,6,5.6,7.7,9.4
		c2.1,4.7,3,9.4,3,14.6v27.9c0,3-0.9,6-2.6,8.1c-2.6,2.6-6.4,4.3-9.9,3.9h-44.1c-4.7,0-7.3-3.4-7.7-9.4s2.6-9.4,7.7-9.4h34.3v-18.9
		c0-3.4-1.3-6.4-3-9.4c-2.6-3-6.4-4.7-10.7-4.3h-25.3c-3.9-0.4-8.1,1.3-10.7,4.3c-2.1,2.6-3,6-3,9.4V168.4z"/>
	<path class="st1" d="M1131.4,192.4c0,6.4-3.9,9.9-11.1,9.9s-11.1-3.4-11.6-9.9v-84c0-11.1,3.4-18.9,9.9-23.1
		c6.9-4.3,15-6.4,23.1-6.4h23.1c5.1,0,7.7,3,7.7,9.4c0,6.4-2.1,9.4-7.7,9.4h-21.4c-3.4-0.4-6.9,0.4-9.4,3c-1.7,2.1-2.6,5.1-2.1,8.1
		L1131.4,192.4z"/>
	<path class="st1" d="M1235.5,201c-3.9,0-8.1-0.4-12-1.7c-3.9-1.3-7.7-3-11.1-5.1l0,0c-6.9-4.3-9.9-12-9.9-23.1v-9.9
		c0-5.1,0.9-9.9,3-14.6c1.7-3.9,4.7-7.3,8.1-9.9l0,0c6.4-4.3,14.1-6.9,21.9-6.9h45v-18.4c0-3.4-1.3-6.4-3-9.4
		c-2.6-3-6.4-4.7-10.7-4.3h-24c-3.9-0.4-7.7,0.9-10.7,3.9c-2.1,2.6-3,5.6-3,9v1.7c0,6.9-3.9,10.7-11.6,10.7s-11.6-3.4-11.6-10.7
		v-1.7c0-4.7,0.9-9.9,3-14.1c1.7-3.9,4.7-6.9,8.1-9.4l0,0c3.4-2.1,7.3-4.3,11.1-5.6c3.4-1.3,7.3-2.1,11.1-2.1h30.9
		c3.9,0,7.3,0.9,10.7,2.1c3.9,1.3,7.3,3.4,10.7,5.6l0,0c3.4,2.6,6.4,6,8.1,10.3c2.1,4.7,3,9.4,3,14.1v81.4c0,6.4-3.9,9.9-11.1,9.9
		c-1.3,0-3,0-4.3-0.4c-1.3,0-2.6-0.4-3.4-1.3c-0.9-0.9-1.7-1.7-2.6-2.6c-0.9-1.3-0.9-3-0.9-4.7v-44.6h-41.1c-2.6,0-4.7,0.4-6.9,0.9
		c-1.7,0.9-3,1.7-3.9,3.4c-0.9,2.1-1.7,4.3-2.1,5.1c-0.4,1.3-0.9,3-0.9,4.3v8.1c0,3,0.9,6,3,8.1c3,2.1,6.9,3,10.7,2.6h22.3
		c5.1,0,7.7,3,7.7,9.4c0,2.6-0.4,4.7-1.7,6.9c-1.3,1.7-3.4,3-5.6,2.6L1235.5,201z"/>
	<path class="st1" d="M1441.7,168.9c0.9,9.4-3.4,18.9-10.7,24.4c-6,4.7-13.7,7.3-21.4,7.7h-34.3c-7.7,0-15-3-21-7.7
		c-3.4-2.6-6-6.4-7.7-10.3c-1.7-4.7-2.6-9.4-2.6-14.1V111c0-11.1,3.4-19.3,10.3-24.4c3.4-2.6,6.9-4.3,10.3-6
		c3.4-1.3,6.9-2.1,10.3-2.1h34.3c3.9,0,7.3,0.9,10.7,1.7c3.9,1.3,7.7,3,10.7,5.1c3.4,2.6,6,5.6,7.7,9.4c2.1,4.7,3,9.4,3,14.6v10.3
		c0,6.4-3.9,9.9-11.1,9.9s-11.1-3.4-11.1-9.9V111c0-3.4-1.3-6.4-3-9.4c-2.6-3-6.4-4.7-10.7-4.3H1380c-3.9-0.4-8.1,1.3-10.7,4.3
		c-2.1,2.6-3,6-3,9.4v57.4c0,3.4,1.3,6.4,3,9c2.6,3,6.4,4.7,10.7,4.3h25.3c3.9,0.4,8.1-1.3,10.7-4.3c2.1-2.6,3-6,3-9V159
		c0-6.4,3.9-9.4,11.1-9.4s11.1,3,11.1,9.4L1441.7,168.9z"/>
	<path class="st1" d="M1508.5,97.7v73.7c0,3,0.4,5.6,2.1,8.1c2.6,2.1,6,3.4,9.4,3h5.1c5.1,0,7.7,3,7.7,9.4s-2.1,9.4-7.3,9.4h-6.4
		c-4.3,0-8.1-0.4-12-1.7c-3.9-1.3-7.7-3-11.1-5.1v0.4c-6.9-4.3-9.9-12-9.9-23.1V97.7h-8.1c-4.7,0-7.3-3-7.7-9.4
		c-0.4-6.4,2.6-9.4,7.7-9.4h7.7V57c0-6.4,3.9-9.9,11.6-9.9c7.3,0,11.1,3.4,11.1,9.9v21.9h16.7c5.1,0,7.7,3,7.7,9.4
		c0,6.4-2.6,9.4-7.7,9.4H1508.5z"/>
	<path class="st2" d="M366,233.1c-2.6,0-5.1,0.9-6.9,3s-2.6,4.7-2.6,7.7v16.3h4.7v-11.6h9.4v11.6h4.7v-16.3c0-2.6-0.9-5.6-2.6-7.7
		C371.1,234.4,368.5,233.1,366,233.1z M361.2,243.9c0-1.7,0.4-3.4,1.3-4.7c1.7-2.1,5.1-2.1,6.9,0l0,0c0.9,1.3,1.3,3,1.3,4.7v0.4
		L361.2,243.9L361.2,243.9z"/>
	<path class="st2" d="M402,242.1c-0.9,0.4-2.1,0.9-3,1.3c-1.3,0.9-2.1,2.1-3,3.4c-0.9,1.3-0.9,3-0.9,4.3c0,2.6,0.9,5.1,3,6.9
		s5.1,2.6,7.7,2.6h2.1v-4.3h-2.1c-1.7,0-3.4-0.4-4.7-1.3c-1.3-0.9-1.7-2.1-1.7-3.9c0-1.3,0.4-3,1.7-3.9s3-1.7,4.7-1.3h2.1v-4.3h-2.1
		C404.5,241.3,403.2,241.7,402,242.1z"/>
	<path class="st2" d="M433.7,242.1c-0.9,0.4-2.1,0.9-3,1.3c-2.6,1.7-3.9,4.3-4.3,7.7c0,2.6,0.9,5.1,3,6.9s5.1,2.6,7.7,2.6h2.1v-4.3
		h-2.1c-1.7,0-3.4-0.4-4.7-1.3s-1.7-2.1-1.7-3.9c0-1.3,0.4-3,1.7-3.9c1.3-0.9,3-1.7,4.7-1.3h2.1v-4.3h-2.1
		C436.2,241.3,435,241.7,433.7,242.1z"/>
	<path class="st2" d="M472.7,251.6c0,1.3-0.9,2.6-1.7,3.9c-1.7,1.7-4.7,1.7-6.9,0l0,0c-0.9-0.9-1.3-1.7-1.3-2.6l1.3,2.6l12.4-6.9
		v-0.4c-0.9-1.7-2.1-3-3.4-4.3c-1.3-0.9-3.4-1.7-5.1-1.7c-1.3,0-2.6,0.4-3.4,0.9c-1.3,0.4-2.1,1.3-3,2.1s-1.7,2.1-2.1,3
		c-0.4,1.3-0.9,2.6-0.9,3.9c0,1.7,0.4,3.4,1.3,4.7c0.9,1.3,2.1,2.6,3.4,3.4c0.9,0.4,1.3,0.9,2.1,0.9c0.9,0,1.7,0.4,2.6,0.4
		c2.1,0,4.3-0.9,6-2.1c1.7-1.7,3-3.9,3-6v-0.4l-4.3-0.4L472.7,251.6z M462.8,250.7c0-1.3,0.4-2.6,1.3-3.9c1.3-1.3,3.4-2.1,5.1-1.3
		l0.9,0.4L462.8,250.7z"/>
	<rect x="496.7" y="233.6" class="st2" width="4.3" height="26.6"/>
	<path class="st2" d="M535.2,251.6c0,1.3-0.9,2.6-1.7,3.9c-0.9,0.9-2.1,1.3-3.4,1.3c-1.3,0-2.6-0.4-3.4-1.7
		c-0.9-0.9-1.3-1.7-1.3-2.6l1.3,2.6l12.4-6.9l-0.4-0.4c-0.9-1.7-2.1-3-3.4-4.3c-1.3-0.9-3.4-1.7-5.1-1.7c-1.3,0-2.6,0.4-3.4,0.9
		c-1.3,0.4-2.1,1.3-3,2.1s-1.7,2.1-2.1,3c-0.4,1.3-0.9,2.6-0.9,3.9c0,1.7,0.4,3.4,1.3,4.7c0.9,1.3,2.1,2.6,3.4,3.4
		c0.9,0.4,1.3,0.9,2.1,0.9s1.7,0.4,2.6,0.4c2.1,0,4.3-0.9,6-2.1c1.7-1.7,3-3.9,3.4-6v-0.4l-4.3-0.4V251.6z M525.4,250.7
		c0-1.3,0.4-2.6,1.3-3.9c0.9-0.9,2.1-1.7,3.4-1.7c0.4,0,1.3,0,1.7,0.4c0.4,0,0.9,0.4,0.9,0.4L525.4,250.7z"/>
	<path class="st2" d="M564.8,242.1c-0.4,0.4-0.9,0.4-1.3,0.9v-1.3h-4.3v18.4h4.3v-8.6c0-1.7,0.4-3,1.3-4.3c1.3-0.9,2.6-1.7,4.3-1.3
		h0.9v-4.3h-1.3C567.4,241.7,566.1,241.7,564.8,242.1z"/>
	<path class="st2" d="M605.5,246.4c-0.9-1.3-1.7-2.6-3.4-3.4c-1.3-0.9-3-1.3-4.7-1.3c-2.6,0-5.1,0.9-6.4,2.6
		c-1.7,1.7-2.6,4.3-2.6,6.9c0,1.7,0.4,3,0.9,4.7c0.9,1.3,1.7,2.6,3,3.4c0.9,0.4,1.7,0.9,2.1,1.3c0.9,0.4,1.7,0.4,2.6,0.4
		c0.9,0,1.7,0,2.6-0.4c0.9,0,1.7-0.4,2.6-0.9l0,0v0.9h4.3v-7.7c0-1.3,0-2.6-0.4-3.4C606,248.1,605.5,247.3,605.5,246.4z
		 M602.1,254.1l-0.9,0.4c-0.4,0.4-1.3,0.9-2.1,1.3c-0.4,0.4-1.3,0.4-2.1,0.4c-1.3,0-2.6-0.4-3.9-1.7c-0.9-1.3-1.7-2.6-1.3-3.9
		c0-1.3,0.4-3,1.3-3.9c2.1-2.1,5.1-2.1,6.9,0c0.9,1.3,1.3,2.6,1.3,3.9v3.4H602.1z"/>
	<path class="st2" d="M630.8,237h-4.3v15.9c0,2.1,0.4,3.9,2.1,5.1s3.9,1.7,6,1.7h1.7v-4.3h-1.7c-0.9,0-2.1,0-2.6-0.9
		s-0.9-1.7-0.9-2.6v-6.9h5.1v-4.3h-5.1L630.8,237z"/>
	<rect x="656.1" y="241.7" class="st2" width="4.3" height="18.4"/>
	<path class="st2" d="M656.5,235.7c-0.9,0.9-0.9,2.6,0,3.4c0.9,0.9,2.6,0.9,3.4,0l0,0c0.9-0.9,0.9-2.6,0-3.4
		C659.1,234.9,657.4,234.9,656.5,235.7z"/>
	<path class="st2" d="M689.1,241.3c-2.1,0-4.3,0.9-6,2.6c-1.7,1.7-2.1,3.9-2.1,6.4v9.9h4.3v-10.7c0-1.3,0.4-2.1,0.9-3
		c1.3-1.3,3.9-1.3,5.1,0c0.9,0.9,0.9,1.7,0.9,3v10.7h4.3v-9.9c0-2.1-0.9-4.7-2.1-6.4C693.4,242.1,691.2,241.3,689.1,241.3z"/>
	<path class="st2" d="M734.1,246.4c-0.9-1.7-2.1-3-3.4-3.9c-1.3-0.9-3-1.3-4.7-1.3c-2.6,0-4.7,0.9-6.4,2.6c-1.7,1.7-2.6,4.3-2.6,6.9
		c0,1.7,0.4,3.4,1.3,4.7c0.9,1.3,1.7,2.6,3,3.4c0.9,0.4,1.7,0.9,2.1,1.3c1.7,0.4,3.4,0.4,5.1,0c0.9,0,1.7-0.4,2.1-0.9l0,0
		c0,1.3-0.4,2.6-1.3,3.4c-1.7,1.3-3.9,1.7-5.6,1.3c-0.9,0-1.7-0.4-2.6-0.9h-0.4l-0.9,4.3h0.4c0.9,0.4,1.7,0.4,3,0.9
		c0.9,0,1.7,0.4,2.6,0.4c2.6,0,5.1-0.9,6.9-2.6c1.7-1.7,2.6-4.3,2.6-6.9v-6.4c0-1.3,0-2.6,0-3.4C735,248.1,734.5,247.3,734.1,246.4z
		 M729.8,255c-0.4,0.4-1.3,0.9-2.1,1.3c-0.9,0.4-1.3,0.4-2.1,0.4c-1.3,0-2.6-0.4-3.9-1.7c-0.9-1.3-1.3-2.6-1.3-3.9s0.4-3,1.3-3.9
		c2.1-2.1,5.1-2.1,7.3,0c0.9,1.3,1.3,2.6,1.3,3.9v3.4L729.8,255z"/>
	<rect x="828" y="233.6" class="st2" width="4.7" height="26.6"/>
	<path class="st2" d="M861.4,241.3c-2.1,0-4.3,0.9-6,2.6c-1.3,1.7-2.1,3.9-2.1,6.4v9.9h4.3v-10.7c0-0.9,0.4-2.1,0.9-3
		c1.3-1.3,3.9-1.3,5.1,0c0.9,0.9,0.9,1.7,0.9,3v10.7h4.3v-9.9c0-2.1-0.9-4.7-2.1-6.4C865.7,242.1,863.5,241.3,861.4,241.3z"/>
	<path class="st2" d="M903.4,243L903.4,243c-0.9-0.4-1.7-0.9-2.1-0.9c-2.1-0.4-4.3-0.4-6.4,0.4c-1.3,0.4-2.1,1.3-3,2.1
		s-1.3,1.7-1.7,3c-1.3,3.4-0.4,7.7,2.1,10.3c1.7,1.7,4.3,2.6,6.4,2.6c1.7,0,3.4-0.4,4.7-1.3c1.3-0.9,2.6-2.1,3.4-3.9
		c0.4-0.9,0.4-1.7,0.9-2.1c0-1.3,0-2.6,0-3.4V234h-4.3L903.4,243z M903.4,247.7v3.4c0,1.3-0.4,3-1.3,3.9c-1.7,2.1-5.1,2.1-6.9,0l0,0
		c-0.9-0.9-1.3-2.6-1.3-3.9c0-1.3,0.4-3,1.3-3.9s2.1-1.7,3.9-1.7c0.9,0,1.3,0,2.1,0.4c0.9,0.4,1.3,0.9,2.1,1.3L903.4,247.7z"/>
	<path class="st2" d="M939.4,252.4c0,0.9-0.4,2.1-0.9,3c-1.3,1.3-3.9,1.3-5.1,0l0,0c-0.9-0.9-0.9-1.7-0.9-3v-10.7h-4.3v9.9
		c0,2.1,0.9,4.7,2.1,6.4c3.4,3,8.1,3,11.6,0c1.3-1.7,2.1-3.9,2.1-6.4v-9.9h-4.3L939.4,252.4z"/>
	<path class="st2" d="M972.4,249l-3-1.3c-0.4,0-0.9-0.4-1.3-0.9l-0.4-0.4c0-0.4,0-0.4,0.4-0.4c0.4,0,0.4-0.4,0.9-0.4h7.7v-4.3h-6.9
		c-1.7,0-3.4,0.4-4.7,1.3c-1.3,0.9-1.7,2.1-1.7,3.9c0,1.3,0.4,2.1,1.3,3.4c1.3,0.9,2.6,1.7,3.9,2.1l3,1.3c0.4,0,1.3,0.4,1.7,0.9
		c0,0,0.4,0.4,0.4,0.9s0,0.4-0.4,0.9s-0.9,0.4-1.3,0.4h-8.1v4.3h6.4c2.1,0,3.9-0.4,6-1.3c1.3-0.9,2.1-2.6,2.1-3.9
		c0-1.3-0.4-2.1-1.3-3.4C975.4,250.3,974.1,249.9,972.4,249z"/>
	<path class="st2" d="M1002,237h-4.3v15.9c0,2.1,0.4,3.9,2.1,5.1s3.9,1.7,6,1.7h1.7v-4.3h-1.7c-0.9,0-2.1,0-2.6-0.9
		s-0.9-1.7-0.9-2.6v-6.9h5.1v-4.3h-5.1V237H1002z"/>
	<path class="st2" d="M1032.4,242.1c-0.4,0.4-0.9,0.4-1.3,0.9v-1.3h-3.9v18.4h4.3v-8.6c0-1.7,0.4-3,1.3-4.3c1.3-0.9,2.6-1.7,4.3-1.3
		h0.9v-4.3h-1.3C1035,241.7,1033.7,241.7,1032.4,242.1z"/>
	<path class="st2" d="M1056.8,235.7c-0.4,0.4-0.9,1.3-0.9,1.7c0,0.9,0.4,1.3,0.9,1.7c0.9,0.9,2.6,0.9,3.4,0l0,0
		c0.4-0.4,0.9-1.3,0.9-1.7c0-0.9-0.4-1.3-0.9-1.7C1059.4,234.9,1057.7,234.9,1056.8,235.7z"/>
	<rect x="1056.4" y="241.7" class="st2" width="4.3" height="18.4"/>
	<path class="st2" d="M1098,246.4c-0.9-1.7-2.1-3-3.4-3.9s-3-1.3-4.7-1.3c-2.6,0-4.7,0.9-6.4,2.6c-1.7,1.7-2.6,4.3-2.6,6.9
		c0,1.7,0.4,3,0.9,4.7c0.9,1.3,1.7,2.6,3,3.4c0.9,0.4,1.7,0.9,2.1,1.3c0.9,0.4,1.7,0.4,2.6,0.4s1.7,0,2.6-0.4c0.9,0,1.7-0.4,2.1-0.9
		l0,0v0.9h4.3v-7.7c0-1.3,0-2.6,0-3.4C1098.8,248.1,1098.4,247.3,1098,246.4z M1095,254.1l-0.9,0.4c-0.4,0.4-1.3,0.9-2.1,1.3
		c-0.9,0.4-1.3,0.4-2.1,0.4c-1.3,0-2.6-0.4-3.9-1.7c-0.9-1.3-1.3-2.6-1.3-3.9c0-1.3,0.4-3,1.3-3.9s2.1-1.7,3.4-1.3
		c1.3,0,2.6,0.4,3.4,1.3c0.9,1.3,1.3,2.6,1.3,3.9v3.4H1095z"/>
	<rect x="1119.8" y="233.6" class="st2" width="4.3" height="26.6"/>
	<path class="st2" d="M1231.7,246.4c0.9-0.4,1.3-1.3,1.7-1.7c0.4-0.9,0.9-2.1,0.9-3.4c0-2.1-0.9-4.3-2.6-5.6c-1.7-1.7-3.9-2.1-6-2.1
		c-2.6,0-4.7,0.9-6.4,2.6c-1.7,2.1-2.6,4.7-2.1,7.3v16.7h4.3v-17.6c0-1.3,0.4-2.6,1.3-3.9c1.7-1.7,4.3-1.7,6-0.4
		c0.9,0.9,1.3,1.7,0.9,2.6c0,0.9-0.4,2.1-1.3,2.6c-0.9,0.9-2.1,0.9-3.4,0.9h-3.4v4.3h4.3c1.3,0,2.6,0,3.4,0.9
		c0.9,1.3,0.9,2.6,0.9,3.9v6h4.7v-6.4c0-1.3-0.4-3-0.9-4.3C1233,247.7,1232.5,246.9,1231.7,246.4z"/>
	<path class="st2" d="M1267.7,251.6c0,1.3-0.9,2.6-1.7,3.9c-0.9,0.9-2.1,1.3-3.4,1.3s-2.6-0.4-3.4-1.7c-0.9-0.9-1.3-1.7-1.3-2.6
		l1.3,2.6l12.4-6.9l-0.4-0.4c-0.9-1.7-2.1-3-3.4-4.3c-1.3-0.9-3.4-1.7-5.1-1.7c-1.3,0-2.6,0.4-3.4,0.9c-1.3,0.4-2.1,1.3-3,2.1
		s-1.7,2.1-2.1,3c-0.4,1.3-0.9,2.6-0.9,3.9c0,1.7,0.4,3.4,1.3,4.7c0.9,1.3,2.1,2.6,3.4,3.4c0.9,0.4,1.3,0.9,2.1,0.9
		c0.9,0,1.7,0.4,2.6,0.4c2.1,0,4.3-0.9,6-2.1c1.7-1.7,3-3.9,3.4-6v-0.4l-4.3-0.4L1267.7,251.6z M1257.8,250.7c0-1.3,0.4-2.6,1.3-3.9
		c0.9-0.9,2.1-1.7,3.4-1.7c0.4,0,1.3,0,1.7,0.4c0.4,0,0.9,0.4,0.9,0.4L1257.8,250.7z"/>
	<path class="st2" d="M1298.1,254.1l-4.3-12.4h-4.3l6,16.3c0.4,0.9,0.4,1.3,1.3,1.7c0.4,0.4,1.3,0.9,1.7,0.4c0.9,0,1.3,0,1.7-0.4
		c0.4-0.4,0.9-1.3,1.3-1.7l6-16.3h-4.3L1298.1,254.1z"/>
	<path class="st2" d="M1340.5,244.3c-0.9-0.9-1.7-1.7-3-2.1c-2.1-0.9-4.7-0.9-7.3,0c-1.3,0.4-2.1,1.3-3,2.1c-1.7,1.7-3,4.3-3,6.9
		c0,1.3,0.4,2.6,0.9,3.9c0.4,1.3,1.3,2.1,2.1,3c0.9,0.9,1.7,1.7,3,2.1c1.3,0.4,2.1,0.9,3.4,0.9c1.3,0,2.6-0.4,3.4-0.9
		c1.3-0.4,2.1-1.3,3-2.1s1.7-2.1,2.1-3c0.4-1.3,0.9-2.6,0.9-3.9c0-1.3-0.4-2.6-0.9-3.9C1342.2,246,1341.4,245.1,1340.5,244.3z
		 M1338.8,250.7c0,1.3-0.4,3-1.3,3.9c-1.7,1.7-4.7,2.1-6.4,0.4l-0.4-0.4c-2.1-2.1-2.1-5.6,0-7.7c1.7-1.7,4.7-2.1,6.4-0.4l0.4,0.4
		C1338.4,248.1,1338.8,249.4,1338.8,250.7z"/>
	<rect x="1363.2" y="233.6" class="st2" width="4.3" height="26.6"/>
	<path class="st2" d="M1399.7,252.4c0,0.9-0.4,2.1-0.9,3c-0.9,0.9-1.7,1.3-2.6,1.3s-2.1-0.4-2.6-1.3c-0.9-0.9-0.9-1.7-0.9-3v-10.7
		h-4.3v9.9c0,2.1,0.9,4.7,2.1,6.4c3.4,3,8.1,3,11.6,0c1.7-1.7,2.1-3.9,2.1-6.4v-9.9h-4.3L1399.7,252.4z"/>
	<path class="st2" d="M1428.8,237h-4.3v15.9c0,2.1,0.4,3.9,2.1,5.1s3.9,1.7,6,1.7h1.7v-4.3h-1.7c-0.9,0-2.1,0-3-0.9
		c-0.4-0.9-0.9-1.7-0.9-2.6v-6.9h5.1v-4.3h-5.1L1428.8,237z"/>
	<rect x="1453.7" y="241.7" class="st2" width="4.3" height="18.4"/>
	<path class="st2" d="M1454.1,235.7c-0.9,0.9-0.9,2.6,0,3.4c0.4,0.4,1.3,0.9,1.7,0.9c0.9,0,1.3-0.4,1.7-0.9c0.9-0.9,0.9-2.6,0-3.4
		C1456.7,234.9,1455,234.9,1454.1,235.7z"/>
	<path class="st2" d="M1494,244.3c-0.9-0.9-1.7-1.7-3-2.1c-2.1-0.9-4.7-0.9-7.3,0c-1.3,0.4-2.1,1.3-3,2.1c-0.9,0.9-1.7,2.1-2.1,3
		c-0.4,1.3-0.9,2.6-0.9,3.9c0,1.3,0.4,2.6,0.9,3.9s1.3,2.1,2.1,3s1.7,1.7,3,2.1c2.1,0.9,4.7,0.9,7.3,0c1.3-0.4,2.1-1.3,3-2.1
		s1.7-2.1,2.1-3c0.4-1.3,0.9-2.6,0.9-3.9c0-1.3-0.4-2.6-0.9-3.9C1495.2,246,1494.8,245.1,1494,244.3z M1492.2,250.7
		c0,1.3-0.4,3-1.3,3.9c-0.9,0.9-2.1,1.7-3.4,1.7s-2.6-0.4-3.4-1.7c-2.1-2.1-2.1-5.6,0-7.7c0.9-0.9,2.1-1.7,3.4-1.7s2.6,0.4,3.4,1.7
		C1491.8,248.1,1492.2,249.4,1492.2,250.7z"/>
	<path class="st2" d="M1530,243.9c-1.3-1.7-3.4-2.6-5.6-2.6s-4.3,0.9-5.6,2.6c-1.3,1.7-2.1,3.9-2.1,6.4v9.9h4.3v-10.7
		c0-0.9,0.4-2.1,0.9-3c1.3-1.3,3.9-1.3,5.1,0c0.9,0.9,0.9,1.7,0.9,3v10.7h4.3v-9.9C1532.1,247.7,1531.2,245.6,1530,243.9z"/>
</g>
</svg>
