<svg id="Layer_1" data-name="Layer 1" xmlns="http://www.w3.org/2000/svg" xmlns:xlink="http://www.w3.org/1999/xlink" viewBox="0 0 100.04 100.07"><defs><style>.cls-1{fill:#03979c;stroke:#82c9cb;stroke-width:0.07px;}.cls-1,.cls-2{stroke-miterlimit:18.21;}.cls-2{stroke-width:0.07px;isolation:isolate;opacity:0.5;fill:url(#linear-gradient);stroke:url(#linear-gradient-2);}.cls-3{fill:#fff;}</style><linearGradient id="linear-gradient" x1="-210.23" y1="398.57" x2="-155.34" y2="398.57" gradientTransform="translate(382.87 -675.84) scale(1.82)" gradientUnits="userSpaceOnUse"><stop offset="0.12" stop-color="#fff" stop-opacity="0"/><stop offset="0.25" stop-color="#c1d2d3" stop-opacity="0.15"/><stop offset="0.39" stop-color="#92b4b8" stop-opacity="0.31"/><stop offset="0.52" stop-color="#6ea0a3" stop-opacity="0.46"/><stop offset="0.65" stop-color="#4d9195" stop-opacity="0.6"/><stop offset="0.78" stop-color="#33898c" stop-opacity="0.75"/><stop offset="0.9" stop-color="#178487" stop-opacity="0.88"/><stop offset="1" stop-color="#008285"/></linearGradient><linearGradient id="linear-gradient-2" x1="-210.26" y1="398.57" x2="-155.3" y2="398.57" gradientTransform="translate(382.87 -675.84) scale(1.82)" gradientUnits="userSpaceOnUse"><stop offset="0" stop-color="#fff" stop-opacity="0"/><stop offset="0.15" stop-color="#c1d2d3" stop-opacity="0.15"/><stop offset="0.31" stop-color="#92b4b8" stop-opacity="0.31"/><stop offset="0.46" stop-color="#6ea0a3" stop-opacity="0.46"/><stop offset="0.6" stop-color="#4d9195" stop-opacity="0.6"/><stop offset="0.75" stop-color="#33898c" stop-opacity="0.75"/><stop offset="0.88" stop-color="#178487" stop-opacity="0.88"/><stop offset="1" stop-color="#008285"/></linearGradient></defs><path class="cls-1" d="M100,50A50,50,0,1,1,50,0a50,50,0,0,1,50,50Z" transform="translate(0.02 0.03)"/><path class="cls-2" d="M100,50A50,50,0,1,1,50,0a50,50,0,0,1,50,50Z" transform="translate(0.02 0.03)"/><path class="cls-3" d="M69.09,67.85a19.63,19.63,0,0,1-2.85-.21C58.29,66.51,53,60.8,50,56.42c-3,4.38-8.29,10.09-16.23,11.23a21,21,0,0,1-2.86.2,18.76,18.76,0,0,1-13.06-5.18,17.49,17.49,0,0,1,0-25.4A18.73,18.73,0,0,1,30.92,32.1a21.12,21.12,0,0,1,2.85.2C41.71,33.44,47,39.14,50,43.53c3-4.39,8.29-10.09,16.24-11.23a20.86,20.86,0,0,1,2.84-.2,18.82,18.82,0,0,1,13.07,5.17,17.5,17.5,0,0,1,0,25.4,18.76,18.76,0,0,1-13.06,5.18M53.52,50c1.55,3,6.13,10.33,13.61,11.4a14.58,14.58,0,0,0,2,.14c6.72,0,12.19-5.18,12.19-11.54s-5.47-11.55-12.2-11.55a14.32,14.32,0,0,0-2,.14C59.65,39.64,55.07,47,53.52,50M30.92,38.43c-6.73,0-12.2,5.18-12.2,11.55s5.47,11.54,12.19,11.54a14.35,14.35,0,0,0,2-.14c7.48-1.07,12.06-8.44,13.61-11.4-1.55-3-6.13-10.34-13.61-11.4a12.81,12.81,0,0,0-1.95-.15" transform="translate(0.02 0.03)"/><path class="cls-3" d="M25.82,48.23H36.94v3.58H25.82Zm48.27,0H70.32V44.46h-3.6v3.77H63v3.58h3.76v3.78h3.6V51.81h3.77Z" transform="translate(0.02 0.03)"/></svg>