<svg width="24" height="24" viewBox="0 0 24 24" fill="none" xmlns="http://www.w3.org/2000/svg">
<path d="M4.92901 2.92896L6.34301 4.34296C5.59904 5.08503 5.00906 5.96682 4.60697 6.93763C4.20488 7.90845 3.99861 8.94916 4.00001 9.99996C4.00001 12.21 4.89501 14.21 6.34301 15.657L4.93001 17.07C3.99998 16.1426 3.26237 15.0406 2.75954 13.8273C2.25672 12.614 1.9986 11.3133 2.00001 9.99996C1.99833 8.68649 2.25623 7.38565 2.75889 6.17217C3.26154 4.95869 3.99904 3.85651 4.92901 2.92896ZM19.071 2.92896C20.001 3.85651 20.7385 4.95869 21.2411 6.17217C21.7438 7.38565 22.0017 8.68649 22 9.99996C22.0017 11.3134 21.7438 12.6143 21.2411 13.8277C20.7385 15.0412 20.001 16.1434 19.071 17.071L17.657 15.657C18.401 14.9149 18.991 14.0331 19.393 13.0623C19.7951 12.0915 20.0014 11.0507 20 9.99996C20 7.78996 19.105 5.78996 17.657 4.34296L19.07 2.92996L19.071 2.92896ZM7.75701 5.75696L9.17201 7.17196C8.79997 7.54288 8.50491 7.98367 8.30378 8.46899C8.10264 8.95431 7.99941 9.4746 8.00001 9.99996C8.00001 11.105 8.44801 12.105 9.17201 12.828L7.75701 14.243C7.19904 13.6864 6.75657 13.025 6.45504 12.2968C6.15352 11.5686 5.99888 10.7881 6.00001 9.99996C6.00001 8.34296 6.67201 6.84296 7.75701 5.75696ZM16.243 5.75696C16.801 6.31355 17.2434 6.97494 17.545 7.7031C17.8465 8.43126 18.0011 9.21183 18 9.99996C18.0011 10.7881 17.8465 11.5686 17.545 12.2968C17.2434 13.025 16.801 13.6864 16.243 14.243L14.828 12.828C15.2 12.457 15.4951 12.0162 15.6962 11.5309C15.8974 11.0456 16.0006 10.5253 16 9.99996C16.0006 9.4746 15.8974 8.95431 15.6962 8.46899C15.4951 7.98367 15.2 7.54288 14.828 7.17196L16.243 5.75696ZM12 12C11.4696 12 10.9609 11.7892 10.5858 11.4142C10.2107 11.0391 10 10.5304 10 9.99996C10 9.46952 10.2107 8.96081 10.5858 8.58574C10.9609 8.21067 11.4696 7.99996 12 7.99996C12.5304 7.99996 13.0391 8.21067 13.4142 8.58574C13.7893 8.96081 14 9.46952 14 9.99996C14 10.5304 13.7893 11.0391 13.4142 11.4142C13.0391 11.7892 12.5304 12 12 12ZM11 14H13V22H11V14Z" fill="#050400"/>
</svg>
