<svg width="90" height="90" viewBox="0 0 90 90" fill="none" xmlns="http://www.w3.org/2000/svg">
<g id="play_icon_2 1" clip-path="url(#clip0_56_660)">
<path id="Vector" d="M45 90C69.8528 90 90 69.8528 90 45C90 20.1472 69.8528 0 45 0C20.1472 0 0 20.1472 0 45C0 69.8528 20.1472 90 45 90Z" fill="white" fill-opacity="0.5"/>
<path id="Vector_2" d="M44.9986 73.4498C60.7102 73.4498 73.4469 60.7131 73.4469 45.0015C73.4469 29.29 60.7102 16.5532 44.9986 16.5532C29.287 16.5532 16.5503 29.29 16.5503 45.0015C16.5503 60.7131 29.287 73.4498 44.9986 73.4498Z" fill="white"/>
<path id="Vector_3" d="M56.7741 44.4849C57.1709 44.7141 57.1709 45.2869 56.7741 45.516L39.5547 55.4576C39.1579 55.6867 38.6616 55.4004 38.6616 54.942V35.0589C38.6616 34.6006 39.1579 34.3141 39.5547 34.5432L56.7741 44.4849Z" fill="#EC1F27"/>
</g>
<defs>
<clipPath id="clip0_56_660">
<rect width="90" height="90" fill="white"/>
</clipPath>
</defs>
</svg>
