<svg id="Layer_1" data-name="Layer 1" xmlns="http://www.w3.org/2000/svg" xmlns:xlink="http://www.w3.org/1999/xlink" viewBox="0 0 82.55 100"><defs><style>.cls-1{fill:url(#linear-gradient);}.cls-2{fill:url(#linear-gradient-2);}.cls-3{isolation:isolate;opacity:0.44;fill:url(#radial-gradient);}</style><linearGradient id="linear-gradient" x1="263.9" y1="-117.39" x2="344.86" y2="-187.04" gradientTransform="matrix(0.56, 0, 0, -0.57, -150.47, -64.3)" gradientUnits="userSpaceOnUse"><stop offset="0" stop-color="#5c9fd3"/><stop offset="1" stop-color="#316a99"/></linearGradient><linearGradient id="linear-gradient-2" x1="376.15" y1="-229.19" x2="347.24" y2="-188.29" gradientTransform="matrix(0.56, 0, 0, -0.57, -150.47, -64.3)" gradientUnits="userSpaceOnUse"><stop offset="0" stop-color="#ffd53d"/><stop offset="1" stop-color="#fee875"/></linearGradient><radialGradient id="radial-gradient" cx="-1219.66" cy="-101.55" r="21.56" gradientTransform="matrix(0, -0.24, -1.05, 0, -65.66, -197.77)" gradientUnits="userSpaceOnUse"><stop offset="0" stop-color="#b9b9b9" stop-opacity="0.5"/><stop offset="1" stop-color="#7f8080" stop-opacity="0"/></radialGradient></defs><g id="g2303"><path id="path1948" class="cls-1" d="M40.78,0a58,58,0,0,0-9.51.81c-8.43,1.49-10,4.61-10,10.35v7.59H41.22v2.53H13.84C8.05,21.28,3,24.76,1.4,31.37-.43,39-.51,43.69,1.4,51.61,2.82,57.5,6.2,61.7,12,61.7h6.85V52.61A12.65,12.65,0,0,1,31.27,40.24H51.15a10,10,0,0,0,10-10.12v-19c0-5.39-4.55-9.45-10-10.35A61.5,61.5,0,0,0,40.78,0ZM30,6.1a3.8,3.8,0,1,1-3.73,3.81A3.78,3.78,0,0,1,30,6.1Z" transform="translate(0 0)"/><path id="path1950" class="cls-2" d="M63.59,21.28v8.84A12.76,12.76,0,0,1,51.15,42.74H31.27a10.16,10.16,0,0,0-10,10.12v19c0,5.4,4.69,8.57,10,10.12a33.3,33.3,0,0,0,19.88,0c5-1.45,10-4.37,10-10.12V64.23H41.22V61.7H71.06c5.79,0,8-4,10-10.09,2.08-6.24,2-12.23,0-20.24-1.43-5.76-4.16-10.09-10-10.09Zm-11.18,48a3.8,3.8,0,1,1-3.74,3.78A3.75,3.75,0,0,1,52.41,69.29Z" transform="translate(0 0)"/><path id="path1894" class="cls-3" d="M68.13,94.83c0,2.85-11.95,5.17-26.68,5.17s-26.68-2.32-26.68-5.17,11.94-5.18,26.68-5.18S68.13,92,68.13,94.83Z" transform="translate(0 0)"/></g></svg>